<svg width="1624" height="180" viewBox="0 0 1624 180" fill="none" xmlns="http://www.w3.org/2000/svg">
<path d="M1623.24 2.98438V30.8296H1565.06V78.813C1570.37 76.8241 1576 75.2495 1581.97 74.0892C1588.1 72.7633 1594.24 72.0174 1600.37 71.8517C1606.5 71.5202 1612.22 71.6859 1617.52 72.3489V98.9511L1615.29 100.443C1611.31 99.2826 1606.5 98.7025 1600.87 98.7025C1595.23 98.5367 1589.26 98.9511 1582.97 99.9456C1576.67 100.774 1570.7 102.266 1565.06 104.421V149.172H1623.24V177.017H1534.48V2.98438H1623.24Z" fill="#32302E"/>
<path d="M1516.15 2.98438V30.8296H1458.72V84.034C1464.03 82.045 1469.66 80.4705 1475.63 79.3102C1481.76 78.15 1487.89 77.4042 1494.03 77.0727C1500.16 76.7412 1505.88 76.9069 1511.18 77.5699V104.421L1508.94 105.912C1504.97 104.586 1500.16 103.923 1494.52 103.923C1488.89 103.758 1482.92 104.172 1476.62 105.167C1470.32 105.995 1464.36 107.57 1458.72 109.89V177.017H1428.14V2.98438H1516.15Z" fill="#32302E"/>
<path d="M1409.81 2.98438V30.8296H1352.38V84.034C1357.68 82.045 1363.32 80.4705 1369.29 79.3102C1375.42 78.15 1381.55 77.4042 1387.68 77.0727C1393.82 76.7412 1399.54 76.9069 1404.84 77.5699V104.421L1402.6 105.912C1398.62 104.586 1393.82 103.923 1388.18 103.923C1382.55 103.758 1376.58 104.172 1370.28 105.167C1363.98 105.995 1358.02 107.57 1352.38 109.89V177.017H1321.8V2.98438H1409.81Z" fill="#32302E"/>
<path d="M1156.55 90.0008C1156.55 68.9511 1159.95 51.7965 1166.74 38.5368C1173.54 25.2772 1182.41 15.5811 1193.34 9.44847C1204.45 3.15014 1216.47 0.000976562 1229.39 0.000976562C1242.32 0.000976562 1254.26 3.15014 1265.2 9.44847C1276.3 15.5811 1285.25 25.2772 1292.05 38.5368C1298.84 51.7965 1302.24 68.9511 1302.24 90.0008C1302.24 111.051 1298.84 128.205 1292.05 141.465C1285.25 154.724 1276.3 164.503 1265.2 170.802C1254.26 176.934 1242.32 180.001 1229.39 180.001C1216.47 180.001 1204.45 176.934 1193.34 170.802C1182.41 164.503 1173.54 154.724 1166.74 141.465C1159.95 128.205 1156.55 111.051 1156.55 90.0008ZM1188.12 90.0008C1188.12 103.592 1189.95 114.863 1193.59 123.813C1197.24 132.763 1202.13 139.559 1208.26 144.2C1214.56 148.675 1221.52 150.912 1229.15 150.912C1236.77 150.912 1243.73 148.675 1250.03 144.2C1256.49 139.559 1261.55 132.763 1265.2 123.813C1269.01 114.863 1270.91 103.592 1270.91 90.0008C1270.91 76.244 1269.01 64.8904 1265.2 55.9401C1261.38 46.9899 1256.33 40.2772 1250.03 35.802C1243.73 31.3269 1236.85 29.0893 1229.39 29.0893C1221.6 29.0893 1214.56 31.4098 1208.26 36.0506C1202.13 40.5258 1197.24 47.2385 1193.59 56.1887C1189.95 65.139 1188.12 76.4097 1188.12 90.0008Z" fill="#32302E"/>
<path d="M1033.7 90.0013C1033.7 74.5869 1035.69 61.2444 1039.66 49.9737C1043.81 38.703 1049.44 29.4212 1056.57 22.1284C1063.7 14.6699 1071.74 9.20026 1080.69 5.71961C1089.64 2.07321 1098.92 0.25 1108.53 0.25C1117.81 0.25 1125.44 1.24447 1131.4 3.23341C1137.54 5.05662 1141.93 7.21132 1144.58 9.6975V39.0345H1140.11C1137.62 36.3825 1134.06 33.9792 1129.42 31.8245C1124.77 29.6699 1119.06 28.5925 1112.26 28.5925C1103.14 28.5925 1095.02 30.9958 1087.9 35.8024C1080.93 40.4433 1075.38 47.3218 1071.24 56.4378C1067.26 65.5538 1065.27 76.7416 1065.27 90.0013C1065.27 103.261 1067.26 114.449 1071.24 123.565C1075.22 132.681 1080.77 139.642 1087.9 144.449C1095.02 149.09 1103.14 151.41 1112.26 151.41C1119.06 151.41 1124.77 150.333 1129.42 148.178C1134.06 146.023 1137.62 143.62 1140.11 140.968H1144.58V170.305C1141.93 172.625 1137.54 174.78 1131.4 176.769C1125.44 178.758 1117.73 179.753 1108.28 179.753C1098.5 179.753 1089.14 178.012 1080.19 174.532C1071.24 170.885 1063.28 165.416 1056.32 158.123C1049.36 150.664 1043.81 141.3 1039.66 130.029C1035.69 118.758 1033.7 105.416 1033.7 90.0013Z" fill="#32302E"/>
<path d="M827.225 177.017V171.548L865.512 2.98438L923.191 3.23299L961.727 171.548V177.017H929.904L920.208 129.283H868.744L859.048 177.017H827.225ZM873.219 102.432H915.484L901.313 31.8241H887.639L873.219 102.432Z" fill="#32302E"/>
<path d="M821.763 132.515C821.763 142.46 819.609 150.996 815.299 158.123C810.99 165.084 804.94 170.471 797.15 174.283C789.526 178.095 780.741 180.001 770.797 180.001C762.675 180.001 755.216 179.007 748.421 177.018C741.791 175.195 735.99 172.957 731.018 170.305C726.211 167.653 722.647 165.415 720.327 163.592V133.509H724.553C729.692 138.316 736.239 142.625 744.194 146.438C752.15 150.084 759.857 151.907 767.316 151.907C771.625 151.907 775.52 151.244 779.001 149.918C782.482 148.427 785.299 146.355 787.454 143.703C789.609 141.051 790.686 137.736 790.686 133.758C790.686 128.454 789.111 124.062 785.962 120.581C782.979 117.101 778.338 113.454 772.04 109.642L748.421 95.2222C743.449 92.2388 738.476 88.7582 733.504 84.7803C728.697 80.8024 724.636 75.83 721.321 69.8632C718.172 63.7306 716.598 56.3549 716.598 47.7361C716.598 37.2941 718.835 28.5925 723.31 21.6312C727.785 14.5041 733.752 9.20026 741.211 5.71961C748.835 2.07321 757.205 0.25 766.321 0.25C773.946 0.25 780.741 1.07873 786.708 2.73618C792.841 4.22789 798.228 6.21684 802.868 8.70302C807.509 11.0235 811.239 13.5925 814.056 16.4102V46.493H810.078C805.272 41.1892 799.222 36.8798 791.929 33.5649C784.636 30.0842 776.929 28.3439 768.808 28.3439C762.841 28.3439 757.786 29.8356 753.642 32.819C749.664 35.6367 747.675 39.7803 747.675 45.2499C747.675 50.5538 749.747 55.1947 753.89 59.1726C758.2 63.1505 763.504 67.0455 769.802 70.8576L792.675 85.2775C798.31 88.7582 803.283 92.6532 807.592 96.9626C812.067 101.272 815.548 106.327 818.034 112.128C820.52 117.764 821.763 124.559 821.763 132.515Z" fill="#32302E"/>
<path d="M579.09 177.017V171.548L617.377 2.98438L675.057 3.23299L713.593 171.548V177.017H681.769L672.073 129.283H620.609L610.913 177.017H579.09ZM625.084 102.432H667.349L653.178 31.8241H639.504L625.084 102.432Z" fill="#32302E"/>
<path d="M487.324 2.98438H517.904V149.172H569.12V177.017H487.324V2.98438Z" fill="#32302E"/>
<path d="M407.877 2.98438V31.0783H373.07V177.017H342.49V31.0783H306.938V2.98438H407.877Z" fill="#32302E"/>
<path d="M296.628 2.98438V30.8296H238.451V78.813C243.755 76.8241 249.39 75.2495 255.357 74.0892C261.49 72.7633 267.622 72.0174 273.755 71.8517C279.888 71.5202 285.606 71.6859 290.91 72.3489V98.9511L288.672 100.443C284.694 99.2826 279.888 98.7025 274.252 98.7025C268.617 98.5367 262.65 98.9511 256.352 99.9456C250.053 100.774 244.087 102.266 238.451 104.421V149.172H296.628V177.017H207.871V2.98438H296.628Z" fill="#32302E"/>
<path d="M150.328 2.98438H180.908V177.017H150.328V2.98438Z" fill="#32302E"/>
<path d="M0.761719 2.98438H32.5849L61.1761 147.183H74.3529L103.193 2.98438H134.767V8.45398L96.4799 176.769L39.049 177.017L0.761719 8.45398V2.98438Z" fill="#32302E"/>
</svg>
