<svg width="48" height="47" viewBox="0 0 48 47" fill="none" xmlns="http://www.w3.org/2000/svg">
<rect x="0.5" y="0.5" width="46.9792" height="46" rx="23" stroke="white"/>
<path d="M16 19.5C16 18.4391 16.4214 17.4217 17.1716 16.6716C17.9217 15.9214 18.9391 15.5 20 15.5H28C29.0609 15.5 30.0783 15.9214 30.8284 16.6716C31.5786 17.4217 32 18.4391 32 19.5V27.5C32 28.5609 31.5786 29.5783 30.8284 30.3284C30.0783 31.0786 29.0609 31.5 28 31.5H20C18.9391 31.5 17.9217 31.0786 17.1716 30.3284C16.4214 29.5783 16 28.5609 16 27.5V19.5Z" stroke="white" stroke-width="1.3" stroke-linecap="round" stroke-linejoin="round"/>
<path d="M21 23.5C21 24.2956 21.3161 25.0587 21.8787 25.6213C22.4413 26.1839 23.2044 26.5 24 26.5C24.7956 26.5 25.5587 26.1839 26.1213 25.6213C26.6839 25.0587 27 24.2956 27 23.5C27 22.7044 26.6839 21.9413 26.1213 21.3787C25.5587 20.8161 24.7956 20.5 24 20.5C23.2044 20.5 22.4413 20.8161 21.8787 21.3787C21.3161 21.9413 21 22.7044 21 23.5Z" stroke="white" stroke-width="1.3" stroke-linecap="round" stroke-linejoin="round"/>
<path d="M28.5 19V19.01" stroke="white" stroke-width="1.3" stroke-linecap="round" stroke-linejoin="round"/>
</svg>
