<svg xmlns="http://www.w3.org/2000/svg" width="100%"  viewBox="0 0 138 24" fill="none">
<path d="M5.47573 0.376465L8.32362 18.4347H9.72168L12.5696 0.376465H18.0453V1.20494L13.4369 23.5739L4.60841 23.6127L0 1.20494V0.376465H5.47573Z" fill="white"/>
<path d="M26.2154 0.376465V23.6127H20.9727V0.376465H26.2154Z" fill="white"/>
<path d="M42.5103 5.15292H35.74V10.0591C37.7336 9.36004 40.0248 9.03642 41.8112 9.23059V13.839L41.4747 14.0332C40.0766 13.606 37.9277 13.6707 35.7271 14.3698V18.8228H42.4973V23.5995H30.4844V0.363281H42.4973V5.13997L42.5103 5.15292Z" fill="white"/>
<path d="M58.6799 5.21789H54.4987V23.5998H49.256V5.21789H44.9453V0.376465H58.6799V5.21789Z" fill="white"/>
<path d="M76.2349 0.376229V18.8228H82.0084V23.5995H70.9922V0.363281H76.2349V0.376229Z" fill="white"/>
<path d="M83.7656 22.771L88.374 0.363281L97.2025 0.402115L101.811 22.771V23.5995H96.3352L95.5067 18.318H90.0698L89.2414 23.5995H83.7656V22.771ZM94.8206 13.7484L93.4873 5.3471H92.0892L90.7559 13.7484H94.8077H94.8206Z" fill="white"/>
<path d="M110.485 24.001C107.3 24.001 104.608 22.577 103.675 21.8133V16.6741H104.336C105.76 18.0074 108.025 19.1595 109.773 19.1595C111.106 19.1595 112.064 18.4994 112.064 17.399C112.064 16.2987 111.365 15.7032 109.811 14.81L107.494 13.4767C105.436 12.3117 103.184 10.59 103.184 6.83593C103.184 2.38285 106.239 0.000976562 110.019 0.000976562C112.841 0.000976562 115.002 1.25663 116.025 2.18867V7.32783H115.365C114.601 6.3699 112.349 4.8424 110.459 4.8424C109.436 4.8424 108.569 5.41198 108.569 6.47347C108.569 7.53496 109.669 8.29871 111.417 9.36019L112.841 10.2275C116.09 12.1822 117.449 14.0722 117.449 17.2307C117.449 21.5414 114.523 24.001 110.485 24.001Z" fill="white"/>
<path d="M119.211 22.771L123.819 0.363281L132.648 0.402115L137.256 22.771V23.5995H131.781L130.952 18.318H125.515L124.687 23.5995H119.211V22.771ZM130.266 13.7484L128.933 5.3471H127.535L126.201 13.7484H130.253H130.266Z" fill="white"/>
</svg>